<svg width="987" height="1054" viewBox="0 0 987 1054" fill="none" xmlns="http://www.w3.org/2000/svg">
<path d="M532.719 1053.4V938.4L863.219 766.4V761.9L532.719 590.4V475.4L986.219 716.9V811.4L532.719 1053.4Z" fill="#333333"/>
<path d="M453.5 1053.4L0 811.4V716.9L453.5 475.4V590.4L123 761.9V766.4L453.5 938.4V1053.4Z" fill="#333333"/>
<path d="M648.528 798.296C586.668 824.886 525.489 834.494 464.993 827.118C404.846 818.867 350.329 795.86 301.442 758.096C252.904 719.457 214.682 667.675 186.775 602.753C158.868 537.83 147.727 474.771 153.351 413.576C159.324 351.505 180.142 296.115 215.805 247.406C251.205 198.084 299.835 160.128 361.696 133.537C403.344 115.635 445.834 106.441 489.164 105.957C532.232 104.86 573.513 111.425 613.008 125.651C653.115 139.614 688.328 160.76 718.647 189.089L638.243 270.455C617.214 251.919 593.389 237.852 566.767 228.251C540.494 217.775 513.309 212.771 485.21 213.239C457.11 213.707 429.893 219.601 403.556 230.922C363.132 248.298 331.34 273.937 308.179 307.839C285.63 341.477 272.804 380.008 269.699 423.43C266.944 465.976 275.439 510.217 295.184 556.153C314.93 602.089 341.318 639.002 374.35 666.891C407.994 694.516 445.085 711.59 485.622 718.112C526.771 724.37 567.864 718.68 608.9 701.04C635.849 689.456 658.723 673.456 677.522 653.04C696.67 631.747 711.35 607.659 721.563 580.774C732.389 553.625 737.917 525.126 738.147 495.275L852.512 492.92C852.733 535.638 844.812 577.139 828.749 617.424C812.422 657.096 788.869 692.618 758.089 723.99C727.31 755.361 690.789 780.13 648.528 798.296Z" fill="#333333"/>
<path d="M295.185 556.153C275.748 510.935 267.212 467.359 269.578 425.425L269.7 423.43C272.756 380.686 285.232 342.683 307.129 309.419L308.179 307.839C331.34 273.937 363.132 248.298 403.556 230.922L404.791 230.395C430.744 219.418 457.55 213.699 485.21 213.239C513.309 212.771 540.495 217.775 566.767 228.251C592.973 237.702 616.469 251.481 637.256 269.589L638.243 270.455L718.647 189.09C688.328 160.76 653.115 139.614 613.008 125.651C574.13 111.647 533.522 105.067 491.183 105.911L489.165 105.957C446.511 106.434 404.672 115.349 363.649 132.704L361.696 133.537C299.835 160.128 251.205 198.084 215.806 247.406L214.145 249.694C179.496 297.848 159.231 352.475 153.351 413.576C147.727 474.771 158.869 537.83 186.776 602.753L188.091 605.786C215.879 669.29 253.663 720.06 301.442 758.096C350.329 795.86 404.846 818.867 464.993 827.118C525.49 834.494 586.668 824.887 648.529 798.296C690.129 780.414 726.167 756.134 756.643 725.456L758.089 723.99C788.869 692.618 812.422 657.096 828.749 617.424C844.812 577.14 852.734 535.638 852.513 492.92L738.147 495.275C737.917 525.126 732.389 553.625 721.563 580.774C711.35 607.659 696.67 631.748 677.522 653.04C658.724 673.456 635.85 689.457 608.901 701.041L605.741 693.691C631.699 682.533 653.614 667.182 671.6 647.659C690.071 627.112 704.226 603.886 714.085 577.933L714.132 577.81C724.581 551.605 729.924 524.092 730.147 495.214L730.207 487.437L860.471 484.754L860.513 492.878C860.739 536.641 852.619 579.162 836.18 620.387L836.164 620.428L836.147 620.469C819.418 661.118 795.284 697.503 763.8 729.592C732.258 761.741 694.86 787.089 651.688 805.646C589.652 832.311 528.025 842.311 466.934 835.401L464.025 835.059L463.906 835.045C403.31 826.732 348.27 803.763 298.898 766.225L296.552 764.427L296.505 764.391L296.46 764.354C246.754 724.785 207.781 671.877 179.426 605.912C151.072 539.949 139.622 475.554 145.385 412.844L145.386 412.826L145.388 412.81C151.492 349.383 172.792 292.635 209.306 242.741C245.645 192.111 295.489 153.288 358.537 126.188C401.108 107.889 444.635 98.455 489.068 97.9574C533.033 96.8503 575.242 103.557 615.638 118.096C656.129 132.193 691.825 153.458 722.645 181.885L724.109 183.245L730.12 188.861L638.622 281.453L632.954 276.456C613.321 259.151 591.169 245.891 566.453 236.658L564.054 235.776L563.928 235.731L563.804 235.683C538.904 225.754 513.192 220.939 486.609 221.221L485.343 221.238C458.307 221.688 432.115 227.354 406.715 238.272C367.595 255.087 337.047 279.777 314.806 312.319C293.102 344.709 280.691 381.871 277.679 424.001C275.029 465.072 283.209 508.036 302.534 552.994L303.445 555.095C322.663 599.068 348.046 634.201 379.474 660.747C412.071 687.5 447.839 703.925 486.862 710.209C526.412 716.217 565.986 710.779 605.741 693.691L608.901 701.041L606.977 701.859C566.581 718.855 526.129 724.272 485.622 718.112C445.085 711.59 407.995 694.516 374.35 666.891C341.835 639.438 315.756 603.241 296.115 558.3L295.185 556.153Z" fill="white"/>
</svg>
